<?xml version="1.0" encoding="UTF-8" standalone="no"?>
<!-- Created with Inkscape (http://www.inkscape.org/) -->

<svg
   xmlns:dc="http://purl.org/dc/elements/1.1/"
   xmlns:cc="http://creativecommons.org/ns#"
   xmlns:rdf="http://www.w3.org/1999/02/22-rdf-syntax-ns#"
   xmlns:svg="http://www.w3.org/2000/svg"
   xmlns="http://www.w3.org/2000/svg"
   xmlns:xlink="http://www.w3.org/1999/xlink"
   xmlns:sodipodi="http://sodipodi.sourceforge.net/DTD/sodipodi-0.dtd"
   xmlns:inkscape="http://www.inkscape.org/namespaces/inkscape"
   id="svg3261"
   viewBox="0 0 861.66 220.22"
   version="1.1"
   inkscape:version="0.48.4 r9939"
   width="100%"
   height="100%"
   sodipodi:docname="bridge.svg">
  <defs
     id="defs73">
    <linearGradient
       id="linearGradient3821">
      <stop
         style="stop-color:#000000;stop-opacity:1;"
         offset="0"
         id="stop3823" />
      <stop
         id="stop3831"
         offset="0.25"
         style="stop-color:#000000;stop-opacity:0.69230771;" />
      <stop
         id="stop3829"
         offset="0.5"
         style="stop-color:#000000;stop-opacity:0.55384618;" />
      <stop
         style="stop-color:#000000;stop-opacity:1;"
         offset="1"
         id="stop3825" />
    </linearGradient>
    <linearGradient
       id="linearGradient5262">
      <stop
         style="stop-color:#000000;stop-opacity:1;"
         offset="0"
         id="stop5264" />
      <stop
         id="stop5274"
         offset="0.25"
         style="stop-color:#ffc781;stop-opacity:0.76153845;" />
      <stop
         id="stop5272"
         offset="0.5"
         style="stop-color:#ff9760;stop-opacity:0.74901962;" />
      <stop
         id="stop5270"
         offset="1"
         style="stop-color:#000000;stop-opacity:0.49803922;" />
    </linearGradient>
    <linearGradient
       inkscape:collect="always"
       xlink:href="#linearGradient3821"
       id="linearGradient3827"
       x1="-22.464827"
       y1="558.07837"
       x2="799.60516"
       y2="558.07837"
       gradientUnits="userSpaceOnUse" />
  </defs>
  <sodipodi:namedview
     pagecolor="#ffffff"
     bordercolor="#666666"
     borderopacity="1"
     objecttolerance="10"
     gridtolerance="10"
     guidetolerance="10"
     inkscape:pageopacity="0"
     inkscape:pageshadow="2"
     inkscape:window-width="1309"
     inkscape:window-height="744"
     id="namedview71"
     showgrid="false"
     inkscape:zoom="0.95849955"
     inkscape:cx="437.1948"
     inkscape:cy="12.136594"
     inkscape:window-x="57"
     inkscape:window-y="24"
     inkscape:window-maximized="1"
     inkscape:current-layer="svg3261" />
  <metadata
     id="metadata3266">
    <rdf:RDF>
      <cc:Work
         rdf:about="">
        <dc:format>image/svg+xml</dc:format>
        <dc:type
           rdf:resource="http://purl.org/dc/dcmitype/StillImage" />
        <dc:title />
      </cc:Work>
    </rdf:RDF>
  </metadata>
  <g
     id="layer1"
     transform="translate(42.254804,-447.96589)"
     style="stroke:url(#linearGradient3827);stroke-opacity:0.25570779999999999;stroke-width:1.00000003;stroke-miterlimit:4;stroke-dasharray:none">
    <g
       id="g4225"
       stroke-linejoin="round"
       stroke-opacity="0.52968037000000001"
       transform="translate(36.465174,277.77962)"
       stroke="#050006"
       stroke-linecap="round"
       stroke-miterlimit="4"
       stroke-dasharray="none"
       stroke-width="0.6"
       fill="none"
       style="stroke:url(#linearGradient3827);stroke-opacity:0.25570779999999999;stroke-width:1.00000003;stroke-miterlimit:4;stroke-dasharray:none">
      <path
         id="path2987"
         d="m-43.666,315.17,79.16-1.9314,64.68,0,98.468-2.8972,67.576-0.96571,97.502,0.96571,79.16,1.9314,69.506,1.9315,62.749,2.8972,83.022,2.8972,102.33,6.7601,0-4.8286-144.81-7.7258-97.502-3.8629-139.98-3.8629-178.59,0-150.6,1.9314-92.675,0z"
         style="stroke:url(#linearGradient3827);stroke-opacity:0.25570779999999999;stroke-width:1.00000003;stroke-miterlimit:4;stroke-dasharray:none" />
      <path
         id="path2989"
         d="m-30.865,312.79c1.1946-0.2302,3.1495-0.2302,4.3442,0,1.1946,0.23018,0.21721,0.41851-2.1721,0.41851s-3.3667-0.18833-2.1721-0.41851z"
         style="stroke:url(#linearGradient3827);stroke-opacity:0.25570779999999999;stroke-width:1.00000003;stroke-miterlimit:4;stroke-dasharray:none" />
      <path
         id="path2991"
         d="m-37.121,309.91c0.93927-0.24485,2.2425-0.22875,2.8961,0.0358,0.65358,0.26452-0.11491,0.46487-1.7078,0.44517s-2.1276-0.2361-1.1883-0.48097z"
         style="stroke:url(#linearGradient3827);stroke-opacity:0.25570779999999999;stroke-width:1.00000003;stroke-miterlimit:4;stroke-dasharray:none" />
      <path
         id="path2998"
         style="baseline-shift:baseline;block-progression:tb;color:#000000;direction:ltr;text-indent:0;text-align:start;enable-background:accumulate;text-transform:none;stroke:url(#linearGradient3827);stroke-opacity:0.25570779999999999;stroke-width:1.00000003;stroke-miterlimit:4;stroke-dasharray:none"
         d="m91.688,190.28-0.09375,0.0312-5.125,1.5312-0.1875,0.0625,0,0.15625-0.84375,19.656,0,0.1875,0.1875,0.0625,1.5312,0.4375-4.9688,70.312-2.2188,54.969-0.73744,25.664,3.4562-80.601,4.9688-70.5,0-0.21875-0.1875-0.0312-1.5312-0.46875,0.84375-19.25,4.8125-1.4688,4.75,2.4375-0.65625,18.25-2.875,0.65625-0.1875,0.0312-0.03125,0.1875l-4.097,61.81-1.875,63.84-0.384,29.02,2.759-92.83,4.0938-61.594,2.875-0.65625,0.1875-0.0625,0.03125-0.1875,0.65625-18.594,0.03125-0.15625-0.15625-0.0937-4.9375-2.5625-0.09375-0.0312z" />
      <path
         id="path3000"
         style="baseline-shift:baseline;block-progression:tb;color:#000000;direction:ltr;text-indent:0;text-align:start;enable-background:accumulate;text-transform:none;stroke:url(#linearGradient3827);stroke-opacity:0.25570779999999999;stroke-width:1.00000003;stroke-miterlimit:4;stroke-dasharray:none"
         d="m97.281,196.84-0.0625,0.3125-4.7812,22.375-0.0625,0.21875,0.25,0.0625,1.5,0.3125-5.4375,117.56-0.625,27.406l6.564-145.14,0.031-0.22-0.218-0.06-1.438-0.28,4.6562-21.812,3.6562,1.6875-1.1875,19.844-1.625,1.3125-0.09375,0.0625v0.125l-3.0625,116.59-0.375,33.125,3.9375-149.59,1.625-1.2812,0.0625-0.0937,0.0312-0.0937,1.1875-20.156v-0.15625l-0.15625-0.0937-4.0938-1.875-0.28125-0.125z" />
      <path
         id="path3002"
         style="baseline-shift:baseline;block-progression:tb;color:#000000;direction:ltr;text-indent:0;text-align:start;enable-background:accumulate;text-transform:none;stroke:url(#linearGradient3827);stroke-opacity:0.25570779999999999;stroke-width:1.00000003;stroke-miterlimit:4;stroke-dasharray:none"
         d="m600.56,211.62-0.0625,0.0312-4.4375,1-0.21875,0.0625,0.0312,0.1875,0.65625,18.281,0.0312,0.125,0.0937,0.0625,1.7188,1.125-8.8438,2,0-0.0937-0.5-14.844,0-0.125-0.125-0.0937-4.0938-2.375-0.125-0.0625-0.125,0.0312-3.4062,1.5625-0.125,0.0625,0,0.15625-0.53125,14.5,0,0.15625,0.125,0.0625,1.75,1.0938,0.84375,107.09,0.51517,16.677-0.85892-123.9,0-0.125-0.125-0.0625-1.75-1.125,0.5-14.219,3.1562-1.4062,3.875,2.25,0.5,14.531-1.8438,0.78125-0.0312,0,0.125,0.5,0.0625-0.0312,10.938-2.4688,0.625,4.4688-11.562,3.3438-0.1875,0.0625,0,0.1875,1.875,77.844,0,0.25,0.25,0,14.344,0,0.25,0,0-0.28125-4.4375-86.219,0-0.125-0.125-0.0625-2.2812-1.4688-0.65625-17.938,4.125-0.9375,3.5625,1.4375,0.6875,17.094-1.25,0.78125-0.125,0.0937,0,0.15625,5.9688,87.406,2.3366,46.955-0.64905-22.924-1.1875-24.062-5.9688-87.281,1.25-0.75,0.125-0.0937,0-0.15625-0.6875-17.406,0-0.15625-0.15625-0.0625-3.75-1.5312-0.0937-0.0312zm-1.8125,21.125,0.1875,0.125,0.0937,1.9375zm0.46875,5.1562,4.1562,80.781-13.844,0-1.875-77.438zm4.375,85.719-13.969,0.84375-0.25,0.0312,0,0.25,0.34375,17.406,0.5,18.354-0.34375-35.541,13.5-0.84375,2.3464,40.167-1.0026-20.948-0.84375-19.469,0-0.25z" />
      <path
         id="path3004"
         d="m604.13,216.67,158.71,104.65,0,0"
         style="stroke:url(#linearGradient3827);stroke-opacity:0.25570779999999999;stroke-width:1.00000003;stroke-miterlimit:4;stroke-dasharray:none" />
      <path
         id="path3008"
         d="M580.75,221.96,368.84,306.24"
         style="stroke:url(#linearGradient3827);stroke-opacity:0.25570779999999999;stroke-width:1.00000003;stroke-miterlimit:4;stroke-dasharray:none" />
      <path
         id="path3012"
         d="m85.855,195.84-130.38,64.19-0.3413-0.17071"
         style="stroke:url(#linearGradient3827);stroke-opacity:0.25570779999999999;stroke-width:1.00000003;stroke-miterlimit:4;stroke-dasharray:none" />
      <path
         id="path3014"
         d="M-43.842,302.54,85.343,208.64"
         style="stroke:url(#linearGradient3827);stroke-opacity:0.25570779999999999;stroke-width:1.00000003;stroke-miterlimit:4;stroke-dasharray:none" />
      <path
         id="path3032"
         d="m100.87,200.79,240.62,103.8,4.3442,1.3072"
         style="stroke:url(#linearGradient3827);stroke-opacity:0.25570779999999999;stroke-width:1.00000003;stroke-miterlimit:4;stroke-dasharray:none" />
      <path
         id="path3036"
         d="M96.436,195.33,361.68,307.2"
         style="stroke:url(#linearGradient3827);stroke-opacity:0.25570779999999999;stroke-width:1.00000003;stroke-miterlimit:4;stroke-dasharray:none" />
      <path
         id="path3038"
         d="M333.84,305.35,96.436,198.06,323.85,306.38"
         style="stroke:url(#linearGradient3827);stroke-opacity:0.25570779999999999;stroke-width:1.00000003;stroke-miterlimit:4;stroke-dasharray:none" />
      <path
         id="path3040"
         d="M310.39,306.07,96.436,200.45,301.22,306.98"
         style="stroke:url(#linearGradient3827);stroke-opacity:0.25570779999999999;stroke-width:1.00000003;stroke-miterlimit:4;stroke-dasharray:none" />
      <path
         id="path3042"
         d="M292.35,307.32,95.753,202.16,280.06,306.98"
         style="stroke:url(#linearGradient3827);stroke-opacity:0.25570779999999999;stroke-width:1.00000003;stroke-miterlimit:4;stroke-dasharray:none" />
      <path
         id="path3044"
         d="M96.095,205.23,198.83,304.25"
         style="stroke:url(#linearGradient3827);stroke-opacity:0.25570779999999999;stroke-width:1.00000003;stroke-miterlimit:4;stroke-dasharray:none" />
      <path
         id="path3046"
         d="M215.21,305.27,96.436,203.52,229.55,304.93"
         style="stroke:url(#linearGradient3827);stroke-opacity:0.25570779999999999;stroke-width:1.00000003;stroke-miterlimit:4;stroke-dasharray:none" />
      <path
         id="path3048"
         d="m245.93,306.98-0.68262,0l-149.16-103.8,173.72,104.48"
         style="stroke:url(#linearGradient3827);stroke-opacity:0.25570779999999999;stroke-width:1.00000003;stroke-miterlimit:4;stroke-dasharray:none" />
      <path
         id="path3050"
         d="M96.095,204.2,258.22,306.98"
         style="stroke:url(#linearGradient3827);stroke-opacity:0.25570779999999999;stroke-width:1.00000003;stroke-miterlimit:4;stroke-dasharray:none" />
      <path
         id="path3052"
         d="m95.412,209.67,59.388,95.26"
         style="stroke:url(#linearGradient3827);stroke-opacity:0.25570779999999999;stroke-width:1.00000003;stroke-miterlimit:4;stroke-dasharray:none" />
      <path
         id="path3054"
         d="M171.18,305.27,95.753,207.28,186.88,305.61"
         style="stroke:url(#linearGradient3827);stroke-opacity:0.25570779999999999;stroke-width:1.00000003;stroke-miterlimit:4;stroke-dasharray:none" />
      <path
         id="path3056"
         d="m103.26,308-8.874-95.943,16.383,95.943"
         style="stroke:url(#linearGradient3827);stroke-opacity:0.25570779999999999;stroke-width:1.00000003;stroke-miterlimit:4;stroke-dasharray:none" />
      <path
         id="path3058"
         d="m118.62,307.66-24.574-97.309,32.766,97.992"
         style="stroke:url(#linearGradient3827);stroke-opacity:0.25570779999999999;stroke-width:1.00000003;stroke-miterlimit:4;stroke-dasharray:none" />
      <path
         id="path3060"
         d="M136.71,307.66,94.729,210.69,145.58,308"
         style="stroke:url(#linearGradient3827);stroke-opacity:0.25570779999999999;stroke-width:1.00000003;stroke-miterlimit:4;stroke-dasharray:none" />
      <path
         id="path3068"
         d="M-42.701,263.51,85.693,197.35-47.045,270.75"
         style="stroke:url(#linearGradient3827);stroke-opacity:0.25570779999999999;stroke-width:1.00000003;stroke-miterlimit:4;stroke-dasharray:none" />
      <path
         id="path3070"
         d="M86.176,198.8-48.176,276.68"
         style="stroke:url(#linearGradient3827);stroke-opacity:0.25570779999999999;stroke-width:1.00000003;stroke-miterlimit:4;stroke-dasharray:none" />
      <path
         id="path3072"
         d="M85.693,201.7-52.355,285.23"
         style="stroke:url(#linearGradient3827);stroke-opacity:0.25570779999999999;stroke-width:1.00000003;stroke-miterlimit:4;stroke-dasharray:none" />
      <path
         id="path3074"
         d="M85.152,205.02-55.733,293.93"
         style="stroke:url(#linearGradient3827);stroke-opacity:0.25570779999999999;stroke-width:1.00000003;stroke-miterlimit:4;stroke-dasharray:none" />
      <path
         id="path3076"
         d="m-58.63,300.69,144.86-94.534-128.94,90.671"
         style="stroke:url(#linearGradient3827);stroke-opacity:0.25570779999999999;stroke-width:1.00000003;stroke-miterlimit:4;stroke-dasharray:none" />
      <path
         id="path3078"
         d="M-48.962,311.38,85.693,209.91-31.716,308.81"
         style="stroke:url(#linearGradient3827);stroke-opacity:0.25570779999999999;stroke-width:1.00000003;stroke-miterlimit:4;stroke-dasharray:none" />
      <path
         id="path3080"
         d="M-16.47,307.79,86.658,212.8,1.706,307.93"
         style="stroke:url(#linearGradient3827);stroke-opacity:0.25570779999999999;stroke-width:1.00000003;stroke-miterlimit:4;stroke-dasharray:none" />
      <path
         id="path3082"
         d="m16.186,307.45,71.437-95.607"
         style="stroke:url(#linearGradient3827);stroke-opacity:0.25570779999999999;stroke-width:1.00000003;stroke-miterlimit:4;stroke-dasharray:none" />
      <path
         id="path3084"
         d="M30.491,307.85,86.883,215.19"
         style="stroke:url(#linearGradient3827);stroke-opacity:0.25570779999999999;stroke-width:1.00000003;stroke-miterlimit:4;stroke-dasharray:none" />
      <path
         id="path3086"
         d="M47.078,307.93,86.541,217.33"
         style="stroke:url(#linearGradient3827);stroke-opacity:0.25570779999999999;stroke-width:1.00000003;stroke-miterlimit:4;stroke-dasharray:none" />
      <path
         id="path3088"
         d="m63.007,307.45,24.134-87.881"
         style="stroke:url(#linearGradient3827);stroke-opacity:0.25570779999999999;stroke-width:1.00000003;stroke-miterlimit:4;stroke-dasharray:none" />
      <path
         id="path3090"
         d="M73.143,306.48,84.845,246.87"
         style="stroke:url(#linearGradient3827);stroke-opacity:0.25570779999999999;stroke-width:1.00000003;stroke-miterlimit:4;stroke-dasharray:none" />
      <path
         id="path3092"
         d="M604.58,218.6,756.62,321.21"
         style="stroke:url(#linearGradient3827);stroke-opacity:0.25570779999999999;stroke-width:1.00000003;stroke-miterlimit:4;stroke-dasharray:none" />
      <path
         id="path3094"
         d="M604.82,220.05,752.28,321.93"
         style="stroke:url(#linearGradient3827);stroke-opacity:0.25570779999999999;stroke-width:1.00000003;stroke-miterlimit:4;stroke-dasharray:none" />
      <path
         id="path3096"
         d="m604.82,221.98,141.43,99.47"
         style="stroke:url(#linearGradient3827);stroke-opacity:0.25570779999999999;stroke-width:1.00000003;stroke-miterlimit:4;stroke-dasharray:none" />
      <path
         id="path3098"
         d="M604.58,224.88,733.21,321.45"
         style="stroke:url(#linearGradient3827);stroke-opacity:0.25570779999999999;stroke-width:1.00000003;stroke-miterlimit:4;stroke-dasharray:none" />
      <path
         id="path3100"
         d="m613.27,313.72-8.2056-85.95,119.46,91.985"
         style="stroke:url(#linearGradient3827);stroke-opacity:0.25570779999999999;stroke-width:1.00000003;stroke-miterlimit:4;stroke-dasharray:none" />
      <path
         id="path3102"
         d="m595.89,215.7-216.73,89.571"
         style="stroke:url(#linearGradient3827);stroke-opacity:0.25570779999999999;stroke-width:1.00000003;stroke-miterlimit:4;stroke-dasharray:none" />
      <path
         id="path3104"
         d="M596.37,217.39,386.16,306.24"
         style="stroke:url(#linearGradient3827);stroke-opacity:0.25570779999999999;stroke-width:1.00000003;stroke-miterlimit:4;stroke-dasharray:none" />
      <path
         id="path3106"
         d="M397.99,306.48,596.13,219.32"
         style="stroke:url(#linearGradient3827);stroke-opacity:0.25570779999999999;stroke-width:1.00000003;stroke-miterlimit:4;stroke-dasharray:none" />
      <path
         id="path3108"
         d="M410.3,307.2,596.13,220.53"
         style="stroke:url(#linearGradient3827);stroke-opacity:0.25570779999999999;stroke-width:1.00000003;stroke-miterlimit:4;stroke-dasharray:none" />
      <path
         id="path3110"
         d="M424.3,307.69,596.37,222.94,442.16,307.45"
         style="stroke:url(#linearGradient3827);stroke-opacity:0.25570779999999999;stroke-width:1.00000003;stroke-miterlimit:4;stroke-dasharray:none" />
      <path
         id="path3112"
         d="M596.86,223.91,457.12,308.65"
         style="stroke:url(#linearGradient3827);stroke-opacity:0.25570779999999999;stroke-width:1.00000003;stroke-miterlimit:4;stroke-dasharray:none" />
      <path
         id="path3114"
         d="M596.11,225.37,476.65,308.68"
         style="stroke:url(#linearGradient3827);stroke-opacity:0.25570779999999999;stroke-width:1.00000003;stroke-miterlimit:4;stroke-dasharray:none" />
      <path
         id="path3116"
         d="M490.48,308.51,596.62,225.2"
         style="stroke:url(#linearGradient3827);stroke-opacity:0.25570779999999999;stroke-width:1.00000003;stroke-miterlimit:4;stroke-dasharray:none" />
      <path
         id="path3118"
         d="m596.62,226.74-70.822,83.652"
         style="stroke:url(#linearGradient3827);stroke-opacity:0.25570779999999999;stroke-width:1.00000003;stroke-miterlimit:4;stroke-dasharray:none" />
      <path
         id="path3120"
         d="m596.45,226.57-82.085,83.822"
         style="stroke:url(#linearGradient3827);stroke-opacity:0.25570779999999999;stroke-width:1.00000003;stroke-miterlimit:4;stroke-dasharray:none" />
      <path
         id="path3124"
         d="m596.8,226.57-96.42,83.652"
         style="stroke:url(#linearGradient3827);stroke-opacity:0.25570779999999999;stroke-width:1.00000003;stroke-miterlimit:4;stroke-dasharray:none" />
      <path
         id="path3126"
         d="m596.62,227.25-60.241,84.164"
         style="stroke:url(#linearGradient3827);stroke-opacity:0.25570779999999999;stroke-width:1.00000003;stroke-miterlimit:4;stroke-dasharray:none" />
      <path
         id="path3128"
         d="m545.94,311.24,50.855-82.286-40.616,82.969"
         style="stroke:url(#linearGradient3827);stroke-opacity:0.25570779999999999;stroke-width:1.00000003;stroke-miterlimit:4;stroke-dasharray:none" />
      <path
         id="path3130"
         d="m566.59,312.27,30.206-80.92-20.649,81.945"
         style="stroke:url(#linearGradient3827);stroke-opacity:0.25570779999999999;stroke-width:1.00000003;stroke-miterlimit:4;stroke-dasharray:none" />
      <path
         id="path3132"
         d="m597.14,231.86-11.093,80.92"
         style="stroke:url(#linearGradient3827);stroke-opacity:0.25570779999999999;stroke-width:1.00000003;stroke-miterlimit:4;stroke-dasharray:none" />
      <path
         id="path3134"
         d="m605.33,223.84,132.77,96.797"
         style="stroke:url(#linearGradient3827);stroke-opacity:0.25570779999999999;stroke-width:1.00000003;stroke-miterlimit:4;stroke-dasharray:none" />
      <path
         id="path3136"
         d="M715.4,319.78,605.16,228.45,703.11,318.76"
         style="stroke:url(#linearGradient3827);stroke-opacity:0.25570779999999999;stroke-width:1.00000003;stroke-miterlimit:4;stroke-dasharray:none" />
      <path
         id="path3138"
         d="m690.83,318.24s-85.498-87.92-85.669-88.773l76.624,88.602"
         style="stroke:url(#linearGradient3827);stroke-opacity:0.25570779999999999;stroke-width:1.00000003;stroke-miterlimit:4;stroke-dasharray:none" />
      <path
         id="path3140"
         d="m671.88,317.22-67.067-87.237,57.511,86.383"
         style="stroke:url(#linearGradient3827);stroke-opacity:0.25570779999999999;stroke-width:1.00000003;stroke-miterlimit:4;stroke-dasharray:none" />
      <path
         id="path3142"
         d="m616.76,313.98-11.605-85.53,17.407,86.042"
         style="stroke:url(#linearGradient3827);stroke-opacity:0.25570779999999999;stroke-width:1.00000003;stroke-miterlimit:4;stroke-dasharray:none" />
      <path
         id="path3144"
         d="m604.3,231.01,25.598,83.652"
         style="stroke:url(#linearGradient3827);stroke-opacity:0.25570779999999999;stroke-width:1.00000003;stroke-miterlimit:4;stroke-dasharray:none" />
      <path
         id="path3146"
         d="m605.84,229.98,30.377,85.188"
         style="stroke:url(#linearGradient3827);stroke-opacity:0.25570779999999999;stroke-width:1.00000003;stroke-miterlimit:4;stroke-dasharray:none" />
      <path
         id="path3148"
         d="m644.07,315.51-39.421-85.7,47.613,86.212"
         style="stroke:url(#linearGradient3827);stroke-opacity:0.25570779999999999;stroke-width:1.00000003;stroke-miterlimit:4;stroke-dasharray:none" />
      <path
         id="path3152"
         d="m598.33,232.54-3.4131,80.92"
         style="stroke:url(#linearGradient3827);stroke-opacity:0.25570779999999999;stroke-width:1.00000003;stroke-miterlimit:4;stroke-dasharray:none" />
    </g>
  </g>
</svg>
