<!-- Created with Inkscape (http://www.inkscape.org/) -->
<svg id="svg2" xmlns:rdf="http://www.w3.org/1999/02/22-rdf-syntax-ns#" xmlns="http://www.w3.org/2000/svg" viewBox="0 0 483.24 181.24" height="100%" width="100%" version="1.1" xmlns:cc="http://creativecommons.org/ns#" xmlns:xlink="http://www.w3.org/1999/xlink" xmlns:dc="http://purl.org/dc/elements/1.1/">
<metadata id="metadata7">
<rdf:RDF>
<cc:Work rdf:about="">
<dc:format>image/svg+xml</dc:format>
<dc:type rdf:resource="http://purl.org/dc/dcmitype/StillImage"/>
<dc:title/>
</cc:Work>
</rdf:RDF>
</metadata>
<g id="layer3" transform="translate(-74.133146,-222.67882)" display="none">
<image id="image4026" xlink:href="file:///home/binayak/Pictures/trace/21.jpg" height="86.296" width="35.238" y="239.23" x="286.33"/>
</g>
<g id="g3005" fill="#FFF">
<g id="layer1" style="fill:#000000;" transform="translate(-74.133146,-222.67882)">
<path id="path3047" style="fill:#000000;" d="m123.31,377.24c17.71-0.13454,17.71-0.13455,34.069-0.13454,6.3541,0,6.3658,3.4912,0.27039,3.5652-16.629,0.20179-16.634-0.0955-34.204,0.13454-5.1373,0.0673-5.144-3.5272-0.13521-3.5652z"/>
<path id="path3051" style="fill:#000000;" d="m124.37,384.54c-6.0567,0-6.0567,2.6559,0,2.6559h31.797c7.5708,0,7.5708-2.6559,0-2.6559h-31.797z"/>
<path id="path3053" style="fill:#000000;" d="m130.42,390.46c-7.5708,0,1.6696,2.6226,4.5425,3.0024,4.5425,0.60047,9.085,0.60047,12.113,0,2.2572-0.44757,12.113-3.0024,4.5425-3.0024h-21.198z"/>
<path id="path3055" style="fill:#000000;" d="m133.91,232.69c-40.953,0.55039-53.174,44.172-49,61,8.8491,35.68,28.201,43.216,31.844,55.031,1.79,5.8068,1.7188,5.9898,1.7188,23.969h10.625c0.91798-10.532,1.1995-26.051,1.1562-39.219-0.022-6.696-0.12454-12.798-0.25-17.281-0.0627-2.2416-0.1175-4.086-0.1875-5.4062-0.035-0.66013-0.091-1.183-0.125-1.5625-0.0169-0.18972-0.0159-0.32925-0.0312-0.4375-0.009-0.0625,0.007-0.0655,0-0.0937-0.004,0.0003-0.0305-0.0147-0.0625-0.0312-0.0641-0.033-0.155-0.0836-0.3125-0.125-0.315-0.0827-0.79743-0.1345-1.3438-0.1875-1.0926-0.106-2.5171-0.1382-3.9062-0.0625-0.55832,0.0304-0.94873,0.15365-1.4688,0.21875-0.17561,0.13499-0.32248,0.27701-0.5,0.40625-0.69798,0.50814-1.3891,0.95434-1.9688,1.2188-0.2898,0.13221-0.54301,0.2377-0.8125,0.25-0.13474,0.006-0.26348-0.0183-0.40625-0.0937s-0.2604-0.22423-0.3125-0.375c-0.14897-0.43107,0.0001-0.89585,0.3125-1.1875s0.73527-0.49204,1.25-0.65625c0.56032-0.17876,1.3716-0.2145,2.0938-0.3125,0.44759-0.3491,0.91267-0.70486,1.2812-1.0312,0.54795-0.48523,0.9798-0.93582,1.0625-1.0625,1.449-2.2204,2.073-3.8401,2.2188-4.9375,0.0866-0.65163-0.006-1.045-0.15625-1.375-0.40764,0.0752-0.87354,0.2354-1.2188,0.25-0.38434,0.0163-0.71891,0.001-1-0.0625-0.28109-0.0639-0.56652-0.15375-0.6875-0.5-0.1137-0.32541,0.007-0.68886,0.21875-0.90625s0.47028-0.33355,0.78125-0.40625c0.62193-0.14543,1.4129-0.0575,2.0312,0.4375,0.10013,0.0802,0.13255,0.24215,0.21875,0.34375,0.30994-0.075,0.55614-0.074,0.875-0.1875,0.8976-0.31955,1.7977-0.80486,2.4688-1.4375,0.67103-0.63264,1.1075-1.3995,1.1875-2.375,0.12139-1.4799-0.0948-2.4656-0.46875-3.0938-0.13988-0.23498-0.35929-0.25416-0.53125-0.40625-0.0689,0.0342-0.15105,0.12435-0.21875,0.15625-0.71945,0.33921-1.3586,0.5525-1.9375,0.5625-0.28944,0.005-0.56862-0.0448-0.8125-0.1875-0.24388-0.14268-0.43285-0.40499-0.53125-0.6875-0.10122-0.29045,0.0127-0.56635,0.1875-0.75s0.42263-0.33696,0.6875-0.4375c0.52974-0.20103,1.1974-0.26667,1.9062-0.0937,0.28177,0.0687,0.57375,0.21438,0.84375,0.375,1.2088-0.66337,2.5491-1.5042,3.8438-2.5938,1.5269-1.285,2.9201-2.6884,3.6562-3.75,0.0195-0.0282,0.0127-0.0347,0.0312-0.0625-0.27391-0.3553-0.57745-0.72663-0.65625-1.0625-0.0594-0.25302-0.0403-0.56379,0.15625-0.78125,0.1966-0.2175,0.4792-0.2937,0.78125-0.3125a0.40004,0.40004,0,0,1,0.0625,0c0.29143,0.0307,0.55872,0.14652,0.75,0.34375,0.1913,0.19723,0.2636,0.46389,0.25,0.71875-0.0176,0.33027-0.27467,0.68091-0.46875,1.0312,0.027,0.031,0.0341,0.031,0.0625,0.0625,0.98568,1.0936,2.7196,2.5219,4.5625,3.8438,1.5707,1.1266,3.1267,2.0413,4.5,2.7188,0.16905-0.0898,0.29523-0.3157,0.46875-0.375,0.73801-0.25218,1.4719-0.26299,2.0625-0.0937,0.2953,0.0846,0.57481,0.21777,0.78125,0.40625s0.35275,0.4771,0.34375,0.78125c-0.009,0.30296-0.11895,0.59535-0.34375,0.78125s-0.52543,0.248-0.8125,0.25c-0.57414,0.005-1.2436-0.22305-2.0312-0.5625-0.12529-0.054-0.30717-0.1893-0.4375-0.25-0.85692,0.59818-1.5896,1.5797-1.4688,3.7812,0.0569,1.037,0.57866,1.9013,1.3438,2.5938,0.66945,0.60589,1.5512,1.0085,2.4062,1.3125,0.0578-0.0841,0.0593-0.20515,0.125-0.28125,0.53758-0.62234,1.3053-1.0092,2.0312-1.0938,0.36299-0.0423,0.73846-0.011,1.0625,0.125,0.32404,0.13596,0.60003,0.39836,0.75,0.75,0.16849,0.39507,0.15387,0.84322-0.0625,1.1562-0.21637,0.31303-0.55149,0.4756-0.9375,0.5625-0.70466,0.15864-1.6596,0.0407-2.625-0.21875-0.0853,0.30833-0.1097,0.62948,0,1.0312,0.20945,0.7671,0.8834,1.7527,2.3438,2.8438,0.40664,0.30379,1.1589,1.0003,1.8125,1.5938,0.69517,0.0426,1.4547,0.0492,1.9688,0.1875,0.81627,0.21957,1.458,0.76271,1.6875,1.6875,0.0906,0.36475,0.13569,0.64238-0.0312,0.9375-0.0835,0.14756-0.24917,0.2786-0.40625,0.3125-0.15708,0.034-0.30913,0.005-0.4375-0.0312-0.51348-0.14421-1.0272-0.54929-1.6562-1.0625-0.53038-0.43274-0.90038-0.76501-1.4375-1.25-0.34221-0.021-0.504-0.0666-0.90625-0.0937-2.6608-0.17922-6.6013-0.67823-12-3.5312-0.92763-0.49021-1.498-0.82516-2.2188-1.1875-0.89524,0.7573-1.8053,1.4897-2.6875,2.25-1.412,1.2169-2.6159,2.4079-3.125,3.3125-0.255,0.45229-0.3269,0.79076-0.25,1.0312,0.0769,0.24049,0.30681,0.49978,0.90625,0.71875,4.3008,1.571,9.1768,1.7595,12.969,1.4375,1.0946-0.093,1.8176-0.28166,2.6875-0.4375,0.27304-0.34433,0.49668-0.83359,0.78125-1.0938,0.73453-0.67152,1.4643-1.0772,2.1562-1.0938,0.34596-0.008,0.69017,0.0926,0.9375,0.34375,0.24733,0.2511,0.37795,0.6178,0.40625,1.0312,0.0177,0.25873-0.12659,0.39484-0.25,0.5s-0.26287,0.19815-0.4375,0.28125c-0.34927,0.16626-0.81221,0.31073-1.4062,0.46875-0.43467,0.11563-1.1987,0.17684-1.75,0.28125-0.95054,1.2979-1.8173,3.0295-1.9375,5.375-1.6489,32.177,0.30446,32.693,0.84375,57.125h13.688c0-17.979-0.61966-17.222,1.6875-25.469,3.8242-13.67,13.581-8.2526,26.719-49.25,7.0014-21.848-4.0366-66.001-57.562-65.281zm4.5,49.5c-0.0854,0.0181-0.16425,0.0392-0.15625,0.0312,0.0107-0.0118-0.0236-0.038,0,0.0625,0.0163,0.0693,0.20805,0.30991,0.28125,0.4375,0.028-0.0863,0.15325-0.2589,0.15625-0.3125,0.005-0.10075-0.0137-0.13815-0.0312-0.15625-0.0134-0.0138-0.0909-0.0409-0.1875-0.0625-0.0297-0.007-0.0215,0.004-0.0625,0zm0.21875,2c-0.82447,1.1422-2.1239,2.4867-3.625,3.75-1.2441,1.047-2.531,1.8669-3.75,2.5625,0.15517,0.1643,0.34178,0.28671,0.46875,0.5,0.48374,0.81265,0.72443,1.9693,0.59375,3.5625-0.0977,1.1912-0.68811,2.139-1.4688,2.875-0.78064,0.73598-1.7435,1.2778-2.7188,1.625-0.23518,0.0837-0.42483,0.0607-0.65625,0.125,0.15,0.44922,0.17915,1.0136,0.0937,1.6562-0.17076,1.2854-0.82457,2.97-2.3125,5.25-0.21372,0.3275-0.65036,0.71542-1.2188,1.2188-0.0646,0.0572-0.15095,0.1288-0.21875,0.1875,0.0584-0.003,0.0978-0.0283,0.15625-0.0312,1.4292-0.0779,2.9168-0.0487,4.0625,0.0625,0.57284,0.0556,1.0524,0.14889,1.4375,0.25,0.19255,0.0505,0.35305,0.0806,0.5,0.15625,0.14695,0.0756,0.32005,0.18954,0.40625,0.40625,0.0486,0.12222,0.0439,0.18183,0.0625,0.3125s0.0448,0.30186,0.0625,0.5c0.0354,0.39628,0.0584,0.92797,0.0937,1.5938,0.0706,1.3316,0.15595,3.1916,0.21875,5.4375,0.12565,4.4918,0.19675,10.579,0.21875,17.281,0.0432,13.143-0.17822,28.632-1.0938,39.219h18.656c-0.53-24.4-2.49-24.98-0.84-57.19,0.10917-2.1303,0.79322-3.7581,1.625-5.125-0.68072,0.10194-1.1525,0.2458-1.9375,0.3125-3.8757,0.32914-8.8801,0.16177-13.344-1.4688-0.72886-0.26624-1.2012-0.67526-1.375-1.2188-0.17382-0.54349-0.0309-1.133,0.28125-1.6875,0.62421-1.1091,1.9137-2.2988,3.3438-3.5312,0.81779-0.7048,1.5845-1.3713,2.4062-2.0625-0.32993-0.18666-0.84138-0.37818-1.125-0.59375-1.0443-0.79376-1.7179-1.9034-2-3.8125-0.0488-0.33022,0.0148-0.6569,0.15625-1.125,0.14149-0.4681,0.36884-1.018,0.6875-1.5312,0.31866-0.51321,0.74003-0.98838,1.2812-1.3125,0.54122-0.3241,1.1987-0.4899,1.9375-0.3125,2.1742,0.52203,3.7104,2.3164,3.6875,4.5312-0.005,0.52954-0.28768,1.04-0.6875,1.5625-0.39982,0.52255-0.93628,1.0787-1.5625,1.6562-0.28228,0.26035-0.65813,0.54334-0.96875,0.8125,0.65696,0.32531,1.1062,0.57542,1.9688,1.0312,5.1709,2.7326,8.8581,3.2204,11.469,3.4062-0.27039-0.23947-0.73898-0.65629-0.90625-0.78125-1.549-1.1572-2.349-2.2705-2.625-3.2812-0.15337-0.56154-0.11116-1.0658,0.0312-1.5312-0.90948-0.33307-1.8185-0.76413-2.5625-1.4375-0.87852-0.79511-1.5547-1.845-1.625-3.125-0.12149-2.2134,0.67288-3.4304,1.625-4.25-1.3757-0.70381-2.8462-1.5196-4.3438-2.5938-1.8213-1.3064-3.4959-2.6868-4.5625-3.8438zm-9.8125,6.0938c-0.24677,0.0144-0.47199,0.0551-0.65625,0.125-0.18425,0.0699-0.3226,0.16365-0.375,0.21875,0.0416,0.0965,0.0864,0.17785,0.15625,0.21875,0.0812,0.0475,0.18785,0.0655,0.375,0.0625,0.3308-0.006,0.86905-0.19029,1.4375-0.4375-0.0589-0.0191-0.0967-0.1105-0.15625-0.125-0.26615-0.0649-0.53448-0.0769-0.78125-0.0625zm20.938,0.0312c-0.27452,0.006-0.58478,0.0571-0.875,0.15625-0.0126,0.004-0.0187,0.0272-0.0312,0.0312,0.0272,0.012,0.0668,0.0509,0.0937,0.0625,0.73916,0.31853,1.3704,0.47175,1.7188,0.46875,0.17419-0.001,0.25065-0.0372,0.28125-0.0625s0.0585-0.0445,0.0625-0.1875c0.001-0.0384-0.0108-0.0804-0.0937-0.15625-0.083-0.0758-0.23204-0.15985-0.4375-0.21875-0.20547-0.0589-0.44423-0.0993-0.71875-0.0937zm-10.594,2.4375c-0.37202-0.0116-0.70771,0.10621-1,0.28125-0.38972,0.23339-0.7274,0.62346-1,1.0625s-0.47048,0.90465-0.59375,1.3125c-0.12325,0.40785-0.15601,0.8145-0.15625,0.8125,0.26302,1.7798,0.78425,2.5947,1.6875,3.2812,0.29368,0.22321,0.9272,0.47992,1.3125,0.6875,0.38089-0.32677,0.82058-0.6904,1.1562-1,0.60847-0.5612,1.1173-1.1031,1.4688-1.5625,0.35148-0.45937,0.52925-0.8429,0.53125-1.0625,0.0192-1.8543-1.1695-3.303-3.0312-3.75-0.13625-0.0327-0.25099-0.0586-0.375-0.0625zm13.562,5.4062c-0.49794,0.058-1.0761,0.34614-1.4688,0.78125,0.7782,0.17545,1.5553,0.31886,2,0.21875,0.27078-0.061,0.41985-0.1793,0.46875-0.25s0.0668-0.14531-0.0312-0.375c-0.0674-0.15806-0.14941-0.2441-0.3125-0.3125-0.16309-0.0685-0.40094-0.0922-0.65625-0.0625zm-27.812,0.3438c-0.20008,0.0468-0.34615,0.1257-0.40625,0.1875-0.018,0.0185-0.0245,0.0227-0.0312,0.0312,0.0211,0.008,0.0557,0.0155,0.125,0.0312,0.17168,0.039,0.44501,0.0767,0.78125,0.0625,0.14398-0.006,0.36833-0.0752,0.53125-0.0937-0.33593-0.14125-0.70165-0.28855-1-0.21875zm31.08,7.59c0.2154,0.18757,0.38822,0.33231,0.59375,0.5,0.56321,0.45953,1.0466,0.7835,1.2812,0.875,0.0005-0.0549,0.01-0.0526-0.0312-0.21875-0.17646-0.71103-0.44637-0.91961-1.0938-1.0938-0.16169-0.0435-0.54395-0.0344-0.75-0.0625zm-3,1.9688c-0.35924,0.009-1.0096,0.28379-1.6562,0.875-0.0921,0.0842-0.1577,0.2794-0.25,0.375,0.25591-0.0568,0.68636-0.0978,0.90625-0.15625,0.56389-0.15,1.0076-0.30721,1.2812-0.4375,0.10715-0.051,0.17175-0.0919,0.21875-0.125-0.0318-0.19271-0.0924-0.34135-0.15625-0.40625-0.0784-0.0796-0.16413-0.129-0.34375-0.125zm-32.188,0.6875c-0.12059,0.0316-0.32896,0.0279-0.4375,0.0625-0.4537,0.14474-0.77589,0.31787-0.9375,0.46875-0.109,0.10184-0.0948,0.179-0.0937,0.25,0.0986-0.0175,0.23865-0.0343,0.4375-0.125,0.27519-0.12554,0.6693-0.42372,1.0312-0.65625z"/>
</g>
<g id="layer4" style="fill:#000000;" transform="translate(-74.133146,-222.67882)">
<g id="layer1-3" style="fill:#000000;" transform="translate(-135.75404,-111.96953)" fill="#FFF">
<g id="g3100" style="fill:#000000;" fill="#FFF">
<g id="g3883" style="fill:#000000;" transform="matrix(0.69413622,0,0,0.69413622,296.65454,121.78212)" fill="#FFF">
<path id="path3033" style="fill:#000000;" d="m75,417.36c-7.2985,16.377-4.983,39.503-0.75,64.75,4.5527,27.153,22.275,30.538,30.75,30.25,14.028-0.47593,29.316-2.5492,34-25.75,1.8258-9.0427-0.92742-15.579-3.5903-23.655-4.6973-14.246,2.6018-33.385,12.616-35.598,21.489-4.7484,28.391,7.9213,25.945,22.721-1.6828,10.181-10.865,25.619,1.029,57.282,1.7583,4.6806,7.6563,8.1953,9,2.75,1.3821-5.6009-7.0405-23.991-1.0581-64.663,3.3838-23.005-12.549-26.838-18.025-25.458-27.777,7.002-35.775-25.196-38.373,9.5077-0.37332,4.986-0.21048,21.472,0.6484,31.435,1.25,14.5,0.47083,42.736-22.192,41.427-13.452-0.7765-22-3.75-22.5-24.5-0.24089-9.9971,1.25-28.25,6.25-50,1.1202-4.8729-8.4172-22.466-13.75-10.5z" fill="#FFF"/>
<path id="path3037" opacity="0" style="fill:#000000;" d="m100.11,504.99c-6.8904-1.4458-14.129-5.0271-19.252-9.5246-9.4502-8.2968-12.082-18.023-12.436-45.964-0.16942-13.352,0.35506-22.405,1.3688-23.626,0.73784-0.88904,3.7267-2.2401,6.2906-2.8436,4.029-0.94835,8.8491-0.29697,13.519,1.827l2.5341,1.1524,0.23753,1.733c0.13064,0.95312,0.47465,7.2027,0.76446,13.888,0.86229,19.891,1.7583,27.36,4.0072,33.405,2.3878,6.4182,4.5532,8.6401,8.6337,8.8589,2.1646,0.11603,2.5019,0.032,4.065-1.0123,3.7533-2.5077,5.9233-6.5063,7.2333-13.328,0.30764-1.6021,0.70421-6.6044,0.88197-11.125,0.17765-4.5179,0.5823-9.6607,0.89922-11.429,1.7515-9.7706,5.0366-16.737,10.531-22.332,3.3219-3.3828,5.0846-4.6949,8.8001-6.5502,7.5851-3.7878,19.265-4.9004,27.049-2.5765,3.9422,1.1769,8.2281,3.2033,11.733,5.5475,11.86,7.9322,16.734,24.52,16.695,56.816-0.009,7.4627-0.49374,18.354-0.92687,20.828-0.30453,1.7391-2.1379,3.1473-5.4624,4.1956-6.2989,1.9863-13.142,0.88551-17.182-2.7636-2.8847-2.6062-2.7962-2.1408-2.8119-14.772-0.015-12.039-0.76008-26.854-1.6435-32.678-1.2509-8.2465-2.9444-11.335-7.9488-14.495-2.251-1.4217-2.4442-1.477-4.4327-1.2691-5.1828,0.54171-8.2682,3.3657-10.135,9.2766-0.77842,2.4641-0.96343,4.0903-1.4241,12.517-0.53778,9.8375-0.88829,14.546-1.707,22.931-0.4556,4.666-0.45944,4.6791-2.2082,7.5-4.1457,6.6875-11.302,11.849-19.644,14.169-9.4262,2.6211-12.181,2.8726-18.028,1.6459zm14.405-1.3577c3.0452-0.77239,6.6781-1.8839,8.0732-2.4701,3.6561-1.5362,7.6637-4.1422,10.205-6.6364,2.2254-2.1838,5.7585-7.1811,6.0552-8.5645,0.52275-2.4373,1.5897-16.013,2.3307-29.654,0.20211-3.7211,0.61791-7.7389,0.92399-8.9286,1.7339-6.739,5.5328-10.472,11.313-11.117,1.6969-0.18933,2.0574-0.0912,4.0075,1.0908,4.2701,2.5883,6.7127,5.7341,7.8361,10.092,1.6411,6.3659,2.6941,21.405,2.6975,38.522,0.002,10.572,0.0155,10.771,0.80976,11.949,1.1088,1.6453,3.4119,3.3322,5.8772,4.3046,1.7117,0.67518,2.768,0.81784,6.1723,0.83355,5.8109,0.0268,9.8095-1.355,10.983-3.7955,0.83551-1.7371,1.2505-11.768,1.0389-25.114-0.20952-13.215-0.54609-18.689-1.4932-24.286-1.6763-9.905-4.8992-18.259-8.9293-23.144-4.8193-5.8425-14.348-10.652-23.137-11.678-3.7695-0.44006-6.3431-0.27995-11.677,0.72643-15.164,2.8613-24.635,13.163-27.899,30.346-0.47137,2.4819-0.81998,6.4827-1.0309,11.831-0.52762,13.38-1.8572,18.606-5.8683,23.068-3.3036,3.6745-6.3684,4.5362-10.045,2.8244-2.1908-1.0202-3.6807-2.8164-5.3202-6.4138-1.5649-3.4339-2.226-5.677-2.9121-9.8806-1.1505-7.0491-1.2732-8.569-1.8888-23.393-0.4296-10.345-0.69579-14.798-0.98663-16.505-0.23543-1.3816-1.5185-2.2303-5.0235-3.3227-4.7779-1.4892-10.409-1.2676-14.158,0.55703-2.3569,1.1469-2.4088,1.2501-2.9044,5.7651-1.6728,15.24-0.50518,38.511,2.5175,50.177,2.8778,11.106,14.128,20.55,28.019,23.522,4.9734,1.064,8.0291,0.91455,14.413-0.70466zm-22.854-45.54c-0.14581-0.37997-0.04379-0.75562,0.25615-0.94317,0.61732-0.38601,0.92831,0.63252,0.3651,1.1957-0.26714,0.26714-0.45041,0.19263-0.62125-0.25256zm-1.4775-0.45429c-0.44196-0.0851-0.80357-0.39415-0.80357-0.68673,0-0.29257-0.16072-0.43262-0.35714-0.31122-0.19643,0.1214-0.35714,0.0505-0.35714-0.1575,0-0.20802-0.30357-0.37822-0.6746-0.37822-0.42328,0-0.65612-0.23284-0.625-0.625,0.02728-0.34375-0.15129-0.58482-0.39683-0.53571-0.24554,0.0491-0.44643-0.0714-0.44643-0.26786,0-0.19643-0.22388-0.35714-0.4975-0.35714-0.27363,0-0.59884-0.26408-0.72269-0.58683-0.34173-0.89053-0.06474-0.91517,0.83759-0.0745,0.6662,0.62066,0.87284,0.66898,1.1293,0.26408,0.26195-0.41362,0.32174-0.40699,0.36161,0.0401,0.02627,0.29464,0.02873,0.65625,0.0055,0.80357-0.02326,0.14732,0.27409,0.26785,0.66078,0.26785,0.47823,0,0.63733,0.17133,0.4975,0.53572-0.11306,0.29464-0.01619,0.53571,0.21529,0.53571,0.23147,0,0.66341,0.24255,0.95986,0.539s0.68675,0.44768,0.86735,0.33606c0.18059-0.11161,0.32835,0.0476,0.32835,0.35386,0,0.30624-0.04018,0.53491-0.08929,0.50816-0.04911-0.0267-0.45089-0.11828-0.89286-0.20341h0.000001zm-6.0983-5.2893c-0.24546-0.53874-0.37294-1.0529-0.28329-1.1425,0.24246-0.24247,1.0018,1.3055,0.85554,1.7442-0.06927,0.20782-0.32678-0.0629-0.57225-0.60166zm-1.8481-1.5496c-0.29464-0.33159-0.73661-1.1734-0.98214-1.8706-0.50718-1.4402-0.57039-2.3523-0.07816-1.1277,0.17765,0.44197,0.56925,0.80357,0.87022,0.80357,0.36124,0,0.54722,0.33986,0.54722,1,0,0.55,0.19286,1.1929,0.42857,1.4286,0.23571,0.23572,0.27589,0.41518,0.08929,0.39882-0.18661-0.0164-0.58036-0.30107-0.875-0.63267zm-3.8393-4.9428c-1.0312-1.0825-1.875-2.0936-1.875-2.247,0-0.15335-0.29874-0.35694-0.66387-0.45243-0.36513-0.0955-0.77966-0.63494-0.92117-1.1988-0.14152-0.56385-0.40952-1.1193-0.59557-1.2342-0.56739-0.35067-0.83115-3.7675-0.31544-4.0863,0.33511-0.2071,0.40766,0.005,0.28573,0.83586-0.08988,0.61239,0.0091,1.185,0.21988,1.2725,0.21787,0.0904,0.17961,0.17126-0.08864,0.18729-0.68835,0.0411,0.42896,1.0996,1.1607,1.0996,0.30867,0,0.56122,0.16072,0.56122,0.35715s-0.15619,0.35714-0.3471,0.35714c-0.44134,0,1.2043,3.1188,2.2111,4.1905,0.41829,0.44525,1.0004,0.80954,1.2935,0.80954,0.29314,0,0.42549,0.10749,0.29411,0.23887-0.13138,0.13139,0.02835,0.53416,0.35495,0.89505,0.3266,0.3609,0.52785,0.72078,0.44721,0.79975-0.08064,0.079-0.99037-0.74209-2.0216-1.8246z"/>
<path id="path3039" opacity="0" style="fill:#000000;" d="m100.11,504.99c-8.9523-1.8784-18.134-7.2463-23.123-13.518-5.4823-6.8919-7.5304-15.114-8.6061-34.55-0.15461-2.7933-0.3574-5.155-0.45066-5.2483s-0.84801-0.32199-1.6772-0.5083c-1.2445-0.27963-1.5077-0.24669-1.5077,0.18876,0,0.79126-0.87608,0.34689-1.0026-0.50854-0.11749-0.79455-1.4106-1.3143-2.3619-0.94923-0.31025,0.11906-0.56409,0.0355-0.56409-0.18569,0-0.25063-0.33642-0.31772-0.89286-0.17807-0.67843,0.17028-0.89286,0.0845-0.89286-0.35714,0-0.42143,0.22093-0.52856,0.80357-0.38965,0.44196,0.10537,1.2857,0.25099,1.875,0.32359,1.4046,0.17305,4.5937,1.0358,4.8214,1.3043,0.09821,0.1158,0.45982,0.31431,0.80357,0.44114,0.58379,0.21539,0.625-0.31028,0.625-7.9725,0-4.5117,0.13154-8.2031,0.29232-8.2031s0.46428-1.8503,0.67446-4.1118c0.21314-2.2935,0.58725-4.359,0.84596-4.6707,0.7547-0.90935,3.7205-2.2566,6.3091-2.8658,4.03-0.94859,8.849-0.297,13.522,1.8284l2.537,1.1538,0.23657,1.7834c0.13011,0.98085,0.47407,7.059,0.76436,13.507,0.38437,8.5379,0.6497,11.801,0.97644,12.009,0.24676,0.15667,1.4344,0.28731,2.6391,0.29032,1.8876,0.005,2.2163,0.10422,2.3773,0.71975,0.13855,0.52982,0.01096,0.71428-0.49406,0.71428-0.37447,0-0.68085-0.20688-0.68085-0.45974,0-0.73091-2.0425-0.72332-2.4691,0.009-0.28738,0.49354-0.36987,0.51368-0.38268,0.0934-0.0145-0.47619-0.0548-0.47619-0.36254,0-0.29587,0.45782-0.347,0.44483-0.35168-0.0893-0.003-0.34375-0.16618-0.625-0.36261-0.625-0.44496,0-0.44883-0.13153,0.17338,5.8928,0.76531,7.4099,1.5374,11.393,2.9426,15.179,2.3807,6.4142,4.5492,8.6401,8.6307,8.8589,2.1646,0.11603,2.5019,0.032,4.065-1.0123,3.7533-2.5077,5.9233-6.5063,7.2333-13.328,0.30764-1.6021,0.70421-6.6044,0.88197-11.125,0.17765-4.5179,0.5823-9.6607,0.89922-11.429,1.7515-9.7706,5.0366-16.737,10.531-22.332,3.3219-3.3828,5.0846-4.6949,8.8001-6.5502,7.5851-3.7878,19.265-4.9004,27.049-2.5765,3.9422,1.1769,8.2281,3.2033,11.733,5.5475,11.86,7.9322,16.734,24.52,16.695,56.816-0.009,7.4627-0.49374,18.354-0.92687,20.828-0.30453,1.7391-2.1379,3.1473-5.4624,4.1956-6.2989,1.9863-13.142,0.88551-17.182-2.7636-2.8847-2.6062-2.7962-2.1408-2.8119-14.772-0.015-12.039-0.76008-26.854-1.6435-32.678-1.2509-8.2465-2.9444-11.335-7.9488-14.495-2.251-1.4217-2.4442-1.477-4.4327-1.2691-5.1828,0.54171-8.2682,3.3657-10.135,9.2766-0.77842,2.4641-0.96343,4.0903-1.4241,12.517-0.53778,9.8375-0.88829,14.546-1.707,22.931-0.4556,4.666-0.45944,4.6791-2.2082,7.5-4.1457,6.6875-11.302,11.849-19.644,14.169-9.4262,2.6211-12.181,2.8726-18.028,1.6459zm14.405-1.3577c3.0452-0.77239,6.6781-1.8839,8.0732-2.4701,3.6561-1.5362,7.6637-4.1422,10.205-6.6364,2.2254-2.1838,5.7585-7.1811,6.0552-8.5645,0.52275-2.4373,1.5897-16.013,2.3307-29.654,0.20211-3.7211,0.61791-7.7389,0.92399-8.9286,1.7339-6.739,5.5328-10.472,11.313-11.117,1.6969-0.18933,2.0574-0.0912,4.0075,1.0908,4.2701,2.5883,6.7127,5.7341,7.8361,10.092,1.6411,6.3659,2.6941,21.405,2.6975,38.522,0.002,10.572,0.0155,10.771,0.80976,11.949,1.1088,1.6453,3.4119,3.3322,5.8772,4.3046,1.7117,0.67518,2.768,0.81784,6.1723,0.83355,5.8109,0.0268,9.8095-1.355,10.983-3.7955,0.83551-1.7371,1.2505-11.768,1.0389-25.114-0.20952-13.215-0.54609-18.689-1.4932-24.286-1.6763-9.905-4.8992-18.259-8.9293-23.144-4.8193-5.8425-14.348-10.652-23.137-11.678-3.7695-0.44006-6.3431-0.27995-11.677,0.72643-15.164,2.8613-24.635,13.163-27.899,30.346-0.47137,2.4819-0.81998,6.4827-1.0309,11.831-0.52762,13.38-1.8572,18.606-5.8683,23.068-2.2421,2.4938-4.3373,3.6737-6.5155,3.6693-2.3304-0.005-5.0428-1.316-6.4828-3.1341-1.2896-1.6283-3.2987-5.8379-4.1555-8.7071-0.77039-2.5798-1.8788-9.6875-2.1893-14.039-0.13982-1.9594-0.43996-3.7482-0.66699-3.9753-0.41139-0.41139-5.9148-1.3498-7.7811-1.3269-0.54018,0.007-0.98214-0.12556-0.98214-0.2938,0-0.16823-0.36161-0.29319-0.80357-0.27769s-0.60268,0.10926-0.35714,0.20834c0.60743,0.2451,0.56201,0.71412-0.09352,0.96567-0.81583,0.31307-2.3912-0.50409-1.9641-1.0188,0.25621-0.30871-0.0026-0.40487-0.98494-0.366-0.73285,0.029-1.4374-0.10316-1.5656-0.29371-0.12824-0.19055-1.0122-0.35893-1.9643-0.37418-0.95212-0.0152-1.8394-0.18142-1.9718-0.36925-0.1461-0.20735-0.46179-0.15798-0.80357,0.12568-0.30961,0.25696-0.56293,0.32272-0.56293,0.14615,0-0.17658-0.7227-0.31679-1.606-0.31159-1.041,0.006-1.6064,0.1665-1.6071,0.45589-0.000643,0.24553-0.18701,0.44642-0.4142,0.44642-0.84199,0,0.30289,15.937,1.6764,23.337,1.1576,6.2359,2.2321,9.0864,5.0116,13.295,5.8067,8.7928,18.994,15.748,30.038,15.843,2.2808,0.0196,4.1327-0.28241,8.4569-1.3792zm-21.897-52.44c0.06663-6.8086-0.51748-21.21-0.9555-23.558-0.25762-1.3812-1.5543-2.2357-5.042-3.3227-4.7779-1.4892-10.409-1.2676-14.158,0.55703-2.3652,1.151-2.4067,1.2351-2.9312,5.9436-0.47849,4.2953-1.0328,22.155-0.64914,20.916,0.10642-0.34375,0.42277-0.625,0.70301-0.625s0.50953-0.32769,0.50953-0.7282c0-0.72368,0.0047-0.72385,0.75065-0.0289,0.54467,0.50744,1.3779,0.73175,3.0365,0.81748,1.3003,0.0672,2.3529-0.0358,2.4412-0.23899,0.08542-0.19643,0.38517-0.0743,0.66611,0.27137,0.67784,0.83405,5.4579,1.0742,5.9399,0.29844,0.25137-0.40458,0.47494-0.32545,1.1556,0.40899,0.94794,1.0228,2.8787,1.5242,6.2778,1.6302l2.2321,0.0696,0.02359-2.4108,0.000001-0.00001z"/>
<path id="path3041" opacity="0" style="fill:#000000;" d="m185.1,501.55c0.00024-0.14732,0.41881-0.75,0.93016-1.3393,0.51136-0.58929,1.0697-1.433,1.2407-1.875,0.36669-0.94748,0.77938-1.0158,1.4264-0.23611,0.40376,0.48651,0.37606,0.5502-0.19418,0.44643-0.4865-0.0885-0.90196,0.33458-1.5469,1.5754-0.48497,0.93304-1.1011,1.6964-1.3692,1.6964-0.26811,0-0.48727-0.12054-0.48703-0.26786zm-81.608-4.375c-0.5704-0.24511-0.44025-0.31199,0.64608-0.33204,0.82138-0.0151,1.2729,0.1164,1.1396,0.33204-0.26069,0.42181-0.80411,0.42181-1.7857,0zm2.8832,0.0374c-0.61576-0.24122-0.62515-0.29377-0.0893-0.4994,0.35765-0.13724,0.60109-0.0545,0.60435,0.2054,0.004,0.30008,0.10228,0.28239,0.31722-0.057,0.31987-0.50502,1.1059-0.26713,1.1059,0.33469,0,0.39296-0.95612,0.40099-1.9382,0.0163v-0.00002zm5.1525-0.0584c0-0.20802,0.16072-0.27889,0.35715-0.15749,0.19642,0.1214,0.35714-0.0298,0.35714-0.33606,0-0.30624,0.1702-0.5568,0.37822-0.5568s0.26201,0.18803,0.11998,0.41784c-0.17262,0.2793-0.065,0.34368,0.32463,0.19417,0.32058-0.12302,0.66656-0.0882,0.76886,0.0773,0.10229,0.16552-0.17381,0.39738-0.61357,0.51524-1.1816,0.31671-1.6924,0.27019-1.6924-0.15417zm2.8572-0.0155c0-0.17629,0.48214-0.32052,1.0714-0.32052,0.58929,0,1.0714-0.14372,1.0714-0.31937,0-0.17566,0.49158-0.84562,1.0924-1.4888,0.60082-0.64319,1.1834-1.6245,1.2946-2.1806,0.12423-0.62116,0.43013-1.0112,0.79304-1.0112,0.32494,0,0.82717-0.34617,1.1161-0.76927,0.2889-0.4231,1.5297-1.7862,2.7574-3.0291s2.2322-2.5728,2.2322-2.9552c0-0.38246,0.26595-0.96134,0.591-1.2864,0.32505-0.32505,0.66693-1.3812,0.75972-2.3469,0.0928-0.96577,0.34917-1.757,0.56972-1.7582,0.67874-0.004,1.6696-2.1205,1.4334-3.0618-0.15877-0.63256-0.0703-0.86448,0.32976-0.86448,0.6698,0,1.4557-2.2128,1.1396-3.2087-0.17761-0.55961-0.0678-0.71989,0.49309-0.71989,0.86116,0,1.4644-1.7829,1.4674-4.3374,0.001-0.91235,0.30393-2.6802,0.67297-3.9286,0.9424-3.188,1.6173-8.1673,1.3607-10.039-0.12376-0.90291-0.0609-1.7369,0.14656-1.9444,0.1998-0.1998,0.58225-1.4098,0.84988-2.689,0.54091-2.5853,2.5641-6.7974,3.9784-8.2825,0.4949-0.51972,1.019-2.0236,0.90797-2.6054-0.0455-0.23854,0.24441-0.76086,0.64427-1.1607,0.39986-0.39986,0.72702-1.0681,0.72702-1.485,0-0.6333,0.0881-0.68487,0.53571-0.31342,0.29464,0.24454,0.52303,0.78654,0.50752,1.2044-0.0155,0.41791-0.10926,0.55895-0.20833,0.31341-0.33439-0.82869-0.8349-0.454-0.8349,0.625,0,0.58929-0.13356,1.0714-0.2968,1.0714-0.46714,0-1.2342,1.6582-1.2741,2.7542-0.0269,0.74033-0.19668,0.96882-0.6617,0.89072-0.4007-0.0673-0.77948,0.25356-1.054,0.89286-0.2357,0.54885-0.72903,1.4405-1.0963,1.9815-0.90317,1.3303-1.327,2.9279-1.3813,5.2066-0.0301,1.2644-0.21248,1.9686-0.54256,2.0953-0.32018,0.12287-0.38018,0.33486-0.16855,0.59551,0.20304,0.25005,0.14292,1.2919-0.15731,2.7262-0.26726,1.2768-0.511,2.9643-0.54164,3.75-0.0306,0.78571-0.36006,2.2851-0.73203,3.3319-0.37198,1.0469-0.83336,3.4177-1.0253,5.2686-0.3081,2.9712-0.76152,4.5681-1.4622,5.1495-0.11836,0.0982-0.49957,1.0625-0.84714,2.1428-0.75891,2.3589-2.3336,5.3974-2.6847,5.1804-0.13865-0.0857-0.26596,0.33193-0.2829,0.92804-0.017,0.59611-0.36268,1.7205-0.76829,2.4987-0.40561,0.77818-0.73957,1.6108-0.74214,1.8503-0.002,0.23949-1.3686,1.8741-3.0357,3.6325s-3.031,3.4673-3.031,3.7976-0.33133,0.68719-0.7363,0.79309c-0.43024,0.11251-0.69003,0.42944-0.625,0.76245,0.0626,0.32048-0.27271,0.76368-0.76613,1.0127-0.48258,0.24352-0.96473,0.76292-1.0714,1.1542-0.13866,0.5085-0.52508,0.72645-1.3547,0.76409-0.63839,0.029-1.1607-0.0916-1.1607-0.26785v0.00001zm74.165-0.76696c0.12027-0.63839,0.42977-1.4057,0.68779-1.7051,0.3615-0.41953,0.42777-1.8124,0.28884-6.0714-0.0992-3.0398-0.15783-7.0361-0.13039-8.8805,0.0435-2.9269-0.0222-3.3259-0.51644-3.1362-0.34904,0.13394-0.56632,0.0275-0.56632-0.27742,0-0.27211,0.17074-0.55166,0.37942-0.62122,0.26781-0.0893,0.26781-0.42006,0-1.1244-0.20868-0.54888-0.37942-1.9002-0.37942-3.0029s-0.1519-2.4985-0.33756-3.1018c-0.87092-2.8298-1.5222-5.2805-1.688-6.3514-0.0999-0.64569-0.32794-1.2276-0.50665-1.293-0.17871-0.0655-0.32493-0.34168-0.32493-0.61379,0-0.29304-0.2184-0.41093-0.53571-0.28917-0.42198,0.16193-0.53571-0.10226-0.53571-1.2444,0-1.7772-0.60277-3.1858-1.4828-3.4651-0.36304-0.11522-0.66008-0.43974-0.66008-0.72115,0-0.2814-0.14018-0.51164-0.3115-0.51164s-0.42958-0.68304-0.5739-1.5179c-0.14433-0.83482-0.33897-1.317-0.43255-1.0714-0.30722,0.8061-0.72967,0.4664-0.55518-0.44643,0.19699-1.0305-0.40139-1.1928-0.98724-0.26786-0.31366,0.49524-0.36462,0.28247-0.24545-1.0248l0.15042-1.6498-0.93302,0.48684c-0.51315,0.26777-1.1741,0.47696-1.4687,0.46487-0.29465-0.0121-0.13393-0.20339,0.35714-0.42512,0.49107-0.22174,0.94245-0.43456,1.0031-0.47294,0.23872-0.15116-0.98736-2.647-1.3003-2.647-0.18354,0-0.41776-0.32143-0.5205-0.71429-0.10273-0.39286-0.42237-0.71428-0.71029-0.71428-0.33674,0-0.60706-0.52253-0.75771-1.4646-0.1663-1.04-0.43839-1.518-0.9385-1.6488-0.38737-0.1013-0.7043-0.48686-0.7043-0.85681s-0.16072-0.67263-0.35715-0.67263c-0.19642,0-0.35714,0.19925-0.35714,0.44278s-0.40178,0.009-0.89286-0.52013c-0.49107-0.5296-0.89285-1.1421-0.89285-1.3612,0-0.49126-0.89534-1.4186-1.3696-1.4186-0.19207,0-0.26516,0.32142-0.16243,0.71428,0.10444,0.39935,0.011,0.71429-0.212,0.71429-0.66832,0-0.44455-1.5878,0.31549-2.2386,0.39285-0.33638,0.71428-0.43804,0.71428-0.22591,0,0.72301,1.6041,1.7263,2.8571,1.7869,0.8532,0.0413,0.99492,0.10965,0.44643,0.21529-0.86556,0.16671-1.1287,1.1765-0.30657,1.1765,0.27335,0,0.59784,0.40179,0.72109,0.89286,0.14469,0.57648,0.47478,0.89286,0.93157,0.89286,0.39722,0,0.70748,0.23985,0.70748,0.54692,0,0.30081,0.24108,0.63943,0.53572,0.7525,0.31138,0.11949,0.53571,0.65402,0.53571,1.2765,0,1.217,1.585,3.3948,1.9918,2.7367,0.17048-0.27585,0.35667-0.21358,0.58584,0.19592,0.22794,0.4073,0.18335,0.78852-0.13871,1.1858-0.26105,0.32206-0.30154,0.48205-0.09,0.35553,0.22241-0.13301,0.74969,0.51494,1.25,1.5361,0.47593,0.97136,1.1544,1.8609,1.5078,1.9768,0.40911,0.13417,0.60368,0.49179,0.53572,0.98466-0.0648,0.47012,0.0685,0.73891,0.33971,0.68468,0.24553-0.0491,0.4709,0.11161,0.50082,0.35714,0.11879,0.97484,0.20712,1.221,1.0253,2.8572,0.46658,0.93303,0.97702,1.6964,1.1343,1.6964,0.15729,0,0.28597,0.48215,0.28597,1.0714,0,0.60164,0.31891,1.3903,0.72732,1.7987,0.40002,0.40003,0.63161,0.88217,0.51463,1.0714-0.11697,0.18927-0.0585,0.34412,0.12983,0.34412,0.18838,0,0.34469,0.52232,0.34735,1.1607,0.002,0.6384,0.34016,2.4033,0.75,3.922s0.74516,3.4899,0.74516,4.3804c0,1.4837,0.60615,4.4653,1.4522,7.1432,0.22163,0.70149,0.21429,1.112-0.0213,1.1905-0.19773,0.0659-0.34822,0.46806-0.33442,0.89365,0.0236,0.72803,0.0412,0.73268,0.29714,0.0786,0.25205-0.64407,0.28945-0.63094,0.50888,0.17858,0.17473,0.64461,0.0396,1.0376-0.51528,1.4987-0.52489,0.43617-0.59617,0.625-0.23597,0.625,0.43562,0,0.49237,0.93327,0.36375,5.9821-0.0838,3.2902-0.29829,6.0357-0.47658,6.1012-0.1783,0.0655-0.32418,0.41394-0.32418,0.77436,0,0.8986-0.36928,1.7852-0.74357,1.7852-0.1705,0-0.2116-0.52232-0.0913-1.1607h0.00002zm-87.731,0.35714c-0.003-0.34375-0.24654-0.625-0.54119-0.625-0.29464,0-0.53571-0.16636-0.53571-0.3697,0-0.23935,0.27733-0.22129,0.7865,0.0512,0.58124,0.31107,0.82174,0.31518,0.92155,0.0158,0.0927-0.27822,0.29393-0.24631,0.64208,0.10184,0.6826,0.68261,0.64037,1.0428-0.0894,0.76272-0.3288-0.12617-0.727-0.0231-0.88738,0.22965-0.21399,0.33724-0.29239,0.2932-0.29641-0.16647zm7.8517-0.0781c0-0.38173,0.35955-0.54691,1.1905-0.54691,1.5981,0,1.5981,0.906,0,1.0136-0.86584,0.0583-1.1905-0.069-1.1905-0.46672zm-10.625-1.1406c-0.24554-0.0991-0.44643-0.34333-0.44643-0.5428,0-0.19946-0.45246-0.78875-1.0055-1.3095-1.106-1.0416-2.7417-3.9634-3.078-5.4983-0.11812-0.53903-0.40901-0.94082-0.64643-0.89286-0.23742,0.048-0.48802-0.28342-0.5569-0.7364-0.1218-0.80104-0.10492-0.8062,0.61652-0.18848,0.40796,0.34931,0.74175,0.84046,0.74175,1.0914,0,0.25099,0.16071,0.45635,0.35714,0.45635s0.35714,0.24107,0.35714,0.53571,0.29563,0.53572,0.65696,0.53572,0.83276,0.38584,1.0476,0.85742c0.338,0.74184,0.29003,0.88375-0.35585,1.0526-0.69387,0.18145-0.70822,0.25321-0.20353,1.0176,0.34005,0.51501,0.97431,0.86513,1.697,0.9368,1.0759,0.10669,1.1095,0.14905,0.49518,0.62587-0.58685,0.45554-0.59055,0.48765-0.03386,0.29378,0.42949-0.14957,0.625-0.0346,0.625,0.36748,0,0.32182,0.24107,0.67764,0.53572,0.7907,0.29464,0.11307,0.53571,0.34909,0.53571,0.52451,0,0.34034-0.60742,0.37772-1.3393,0.0824zm-6.7845-10.322c-0.24484-0.26387-0.78006-1.3294-1.1894-2.3678-0.40931-1.0384-0.90271-1.986-1.0964-2.1058-0.30651-0.18943-0.54149-0.87956-0.63456-1.8637-0.01503-0.15891-0.18804-0.18961-0.38447-0.0682-0.19643,0.1214-0.35714-0.004-0.35714-0.27873,0-0.27471-0.44196-0.70705-0.98214-0.96077-0.5664-0.26602-0.79317-0.52966-0.53572-0.6228,0.62612-0.22651,0.55844-1.8671-0.08723-2.1149-0.29352-0.11263-0.44474-0.34866-0.33606-0.5245,0.10868-0.17585-0.05602-0.31972-0.366-0.31972-0.43386,0-0.50936-0.22609-0.32798-0.98215,0.31057-1.2946,0.4322-1.3976,0.69272-0.58683,0.6029,1.8763,1.3743,3.3344,1.8634,3.522,0.46378,0.17797,0.44364,0.28462-0.13404,0.70982-0.63486,0.46728-0.63861,0.51636-0.05671,0.74194,0.34271,0.13286,1.0513,1.0283,1.5746,1.9898,0.52333,0.96153,1.0962,1.7482,1.273,1.7482s0.24598,0.12213,0.15373,0.2714c-0.09225,0.14926,0.08408,0.8323,0.39185,1.5179,0.30777,0.68555,0.52781,1.387,0.48897,1.5588-0.03883,0.17178,0.37803,0.20201,0.92636,0.0672,0.54833-0.13483,1.4607-0.30105,2.0274-0.36937,0.56674-0.0683,1.1834-0.33964,1.3703-0.6029,0.23676-0.33348,0.27776-0.20786,0.13516,0.4142-0.11257,0.49107-0.20687,1.0331-0.20955,1.2044-0.0027,0.17137-0.23936,0.11698-0.52596-0.12088-0.5315-0.4411-2.6948-0.19263-3.0503,0.35035-0.09821,0.15001-0.3789,0.0569-0.62374-0.20701zm-6.879-13.905c-0.06038-0.39285-0.10231-0.91517-0.09319-1.1607,0.0091-0.24554-0.12628-0.44643-0.30088-0.44643s-0.31746-0.40178-0.31746-0.89286c0-0.49107-0.14567-0.89285-0.32371-0.89285s-0.24007-0.31983-0.13785-0.71073c0.13385-0.51183-0.05042-0.80534-0.65844-1.0488-0.46436-0.18594-0.6434-0.34825-0.39787-0.3607,0.63264-0.0321,0.55625-1.6898-0.08929-1.9375-0.33499-0.12854-0.53571-0.67392-0.53571-1.4556,0-1.0192-0.10976-1.2079-0.5943-1.0219-0.3996,0.15334-0.5097,0.0912-0.33606-0.18978,0.14203-0.22981,0.08804-0.41784-0.11998-0.41784s-0.37822-0.23603-0.37822-0.5245c0-0.28848,0.20841-0.44454,0.46313-0.34679,0.26965,0.10347,0.62678-0.23691,0.85486-0.81478l0.39174-0.9925,0.03799,0.98214c0.0209,0.54018,0.19871,0.98214,0.39514,0.98214s0.35714,0.32143,0.35714,0.71429-0.13393,0.71429-0.29762,0.71429-0.29762,0.23239-0.29762,0.51642c0,0.37544,0.1658,0.42769,0.60735,0.19138,0.54263-0.2904,0.59538-0.1178,0.49509,1.6198-0.07956,1.3784,0.0449,2.102,0.42733,2.4844,0.29677,0.29677,0.44059,0.69975,0.31961,0.89551-0.12099,0.19576,0.04145,0.90683,0.36096,1.5802,0.31952,0.67333,0.5127,1.6796,0.42929,2.2361-0.1102,0.73531-0.18165,0.81664-0.26142,0.29757zm-3.7897-13.553c-0.1188-0.30959-0.01763-0.80192,0.22482-1.0941,0.24246-0.29214,0.28622-0.53117,0.09724-0.53117-0.4619,0-1.2033-4.1916-1.3267-7.5-0.05492-1.4732-0.19417-3.0402-0.30944-3.4821-0.11528-0.44196-0.05811-0.80357,0.12704-0.80357,0.40314,0,0.40625-4.5186,0.0038-5.5357-0.39801-1.0059-0.09641-1.7314,0.47874-1.1515,0.42339,0.42687,0.61102,7.0017,0.21123,7.4015-0.09821,0.0982-0.12744,1.8389-0.06495,3.8682,0.09314,3.0243,0.20583,3.6542,0.625,3.4934,0.37092-0.14233,0.51138,0.0868,0.51138,0.83423,0,0.56675,0.20089,1.1041,0.44643,1.1942,0.34117,0.12509,0.34808,0.26835,0.02929,0.60761-0.23571,0.25084-0.33509,0.94952-0.2285,1.6064,0.19885,1.2254-0.44662,2.0799-0.82542,1.0928zm86.642-22.527c-0.58882-0.7095-0.3915-0.86344,0.81074-0.63249,0.54018,0.10377,0.98214,0.41101,0.98214,0.68275,0,0.66385-1.2288,0.6294-1.7929-0.0503zm-24.777-0.73692c-0.28514-0.74308-0.28619-0.7374,0.23676-1.2825,0.24902-0.25957,0.75557-1.155,1.1257-1.9898,0.37011-0.83482,0.82005-1.5179,0.99989-1.5179,0.17983,0,0.22495-0.32143,0.10026-0.71428-0.13005-0.40976-0.0642-0.71429,0.1545-0.71429,0.20967,0,0.38121,0.24107,0.38121,0.53571,0,0.35715,0.35715,0.53572,1.0714,0.53572,0.7844,0,1.07,0.16743,1.066,0.625-0.005,0.51328-0.0635,0.53334-0.32992,0.11225-0.25253-0.39908-0.43674-0.41956-0.83096-0.0924-0.27858,0.2312-0.61124,0.31563-0.73924,0.18763-0.36679-0.36679-1.6433,1.3107-1.4268,1.875,0.10868,0.2832-0.0194,0.5092-0.29016,0.51225-0.37396,0.004-0.36229,0.0845,0.0511,0.35168,0.45782,0.29586,0.44484,0.347-0.0893,0.35167-0.3787,0.003-0.625,0.27866-0.625,0.69868,0,0.89825-0.5765,1.2524-0.85544,0.52553zm21.442-0.68303c-0.29464-0.29464-0.81505-0.53571-1.1565-0.53571-0.829,0-0.32244-0.47656,0.577-0.54283,0.38886-0.0286,0.70701,0.14616,0.70701,0.38847,0,0.2423,0.60268,0.60062,1.3393,0.79626l1.3393,0.35571-1.1352,0.0369c-0.62436,0.0203-1.3763-0.20416-1.6709-0.49881zm-3.245-2.0438c-0.70856-1.0116-0.73264-1.7172-0.027-0.79236,0.42305,0.55448,0.59219,0.59732,0.84494,0.21399,0.23405-0.35494,0.36192-0.23914,0.49298,0.44643,0.22295,1.1663-0.53309,1.2424-1.3109,0.13194zm-1.7573-1.1685c0.11264-0.29351,0.34866-0.44474,0.52451-0.33607,0.50426,0.31165,0.37285,0.86973-0.20479,0.86973-0.3186,0-0.44411-0.2095-0.31972-0.53366zm-9.6102-0.79868c0.18912-0.49365,0.40253-0.51343,4.9779-0.46143,1.9236,0.0219,3.3682-0.11608,3.5032-0.33451,0.12635-0.20444,0.58185-0.35903,1.0122-0.34352,0.43038,0.0155,0.5816,0.10926,0.33607,0.20833-0.24554,0.0991-0.44643,0.47602-0.44643,0.83765,0,0.60891-0.353,0.65291-4.7757,0.59524-3.6135-0.0471-4.7347-0.16923-4.6073-0.50176zm-1.3313-0.10744c0-0.19026,0.24108-0.34593,0.53572-0.34593s0.53571,0.0632,0.53571,0.14036c0,0.0772-0.24107,0.23287-0.53571,0.34593-0.29464,0.11307-0.53572,0.0499-0.53572-0.14036z"/>
<path id="path3813" opacity="0" style="fill:#000000;" d="m97.985,403.84a13.637,18.183,0,1,1,-27.274,0,13.637,18.183,0,1,1,27.274,0z"/>
<path id="path3817" style="fill:#000000;" d="m256.35,419.32c-2.2665-4.4571-20.611-5.7255-26.468-5.7871-15.725-0.16538-22.304,4.138-24.973,10.574-9.0901,21.919,6.6136,38.757,22.973,43.005,18.531,4.5451,23.324,5.5902,28.223,15.431,2.6865,19.131-18.625,23.259-26.223,22.074-14.065-2.3141-11.525-18.092-24.195-13.744-3.4484,1.1833-8.907,11.152-0.93198,14.098,4.1368,1.5279,2.847,4.9788,20.627,7.1836,27.905,3.4603,40.875-9.8349,43.712-26.824,2.2193-29.263-28.814-28.596-41.212-28.005-15.955,0.76114-17.811-15.004-15.484-24.468,2.5003-10.167,18.047-15.761,18.734-3.0371,1.1297,20.921,33.118,5.0369,25.218-10.5z" fill="#FFF"/>
<path id="path3819" style="fill:#000000;" d="m282,368.36c0,51.248-1.3829,81.024,0,121,0.70711,20.441,13.935,27.75,31.581,23,6.4659-1.7405,14.807-8.1079,16.133-16.121,0.63877-3.8583-2.9783-13.097-12.308-9.2714-5.4727,2.2438-3.3462,10.451-12.548,15.996-6.9038,4.1601-13.826-3.257-15.081-14.207-4.3578-37.995-5.9571-64.053,3.0322-84.005,2.8077-6.2317,7.86,0.43718,16.992,0.43718,3.0439,0,10.919-14.828,7.932-14.828-6.9439,0-21.071,6.0576-26.706,2-4.0576-2.9217-0.20383-10.491,0-24,0.0519-3.4364-9.027-3.4165-9.027,0z" fill="#FFF"/>
<path id="path3821" style="fill:#000000;" d="m333.16,416.03c-2.7999,3.1242-1.2574,82.181,2.2249,91.895,2.557,7.1327,9.7643,3.4506,11.098,0,7.5599-19.56-8.2584-41.656,0-67.076,3.8522-11.858,23.683-34.205,31.147-22.638,2.3692,3.6717-6.1227,11.577-6.1227,16.464,0,6.9043,3.9198,12.969,9.7221,13.943,7.1685,1.204,9.4295-2.1933,12.492-6.5229,2.9345-4.149,3.0844-11.741,0.60315-16.416-2.1971-4.1397-3.5599-11.535-12.298-13.88-2.56-0.68703-7.1624-0.92119-9.2873-0.68-25.836,2.9326-26.36,29.218-30.791,21.843-2.7268-4.5389,4.0775-12.832,4.0775-17.991,0-6.8098-7.3167-5.1341-12.866,1.0575z" fill="#FFF"/>
<path id="path3823" style="fill:#000000;" d="m401,415.22,0.51451,54.652c0.17,18,15.49,42.35,34.49,42.35,14.969,0,24.603-13,29.5-27.5,3.2189-9.5305,14.214-51.731,0-67-13.996-15.034-15.187-0.24848-7.8484,22.699,2.9318,9.1672,0.92093,28.859,0.92093,28.859-3.7625,25.486-11.277,34.967-24.616,31.66-8.6233-2.1381-25.834-9.8484-24.544-33.573l2.7467-50.515c0.37-6.85-11.19-4.64-11.16-1.64z" fill="#FFF"/>
<path id="path3870" style="fill:#000000;" d="m511,511.16c24.896,1.5472,45.515-18.456,45.515-38.456,0-7.1832,0.81954-10.547-0.51451-21.544-13.011-107.24-131.11,54.648-45,60zm36.174-72.863c7.0045,22.703,3.9561,33.039-3.0871,43.892-12.687,19.55-21.968,23.899-44.802,13.113-10.048-4.7464-13.683-16.616-8.9496-26.652,2.4581-5.2118,5.7398-14.259,12.515-23.51,12.921-17.644,35.949-33.988,44.324-6.8432z" fill="#FFF"/>
<path id="path3906" opacity="0" style="fill:#000000;" d="m80,399.86a2.5,7.5,0,1,1,-0.7631,-5.3943l-1.737,5.39z"/>
<path id="path3914" style="fill:#000000;" d="m97.25,397.11c0-10-25.75-13-25.75-3,0,15,25.75,18,25.75,3z" fill="#FFF"/>
</g>
</g>
</g>
</g>
</g>
</svg>
