<!-- Created with Inkscape (http://www.inkscape.org/) -->
<svg id="svg3373" xmlns:rdf="http://www.w3.org/1999/02/22-rdf-syntax-ns#" xmlns="http://www.w3.org/2000/svg" viewBox="0 0 628.42469 46.30934" height="100%" width="100%" version="1.1" xmlns:cc="http://creativecommons.org/ns#" xmlns:dc="http://purl.org/dc/elements/1.1/">
<metadata id="metadata3378">
<rdf:RDF>
<cc:Work rdf:about="">
<dc:format>image/svg+xml</dc:format>
<dc:type rdf:resource="http://purl.org/dc/dcmitype/StillImage"/>
<dc:title/>
</cc:Work>
</rdf:RDF>
</metadata>
<g id="layer1" fill="#FFF" transform="matrix(0.9975784,0,0,0.45748086,-67.719521,-203.39908)">
<rect id="rect6079" transform="matrix(-0.2664466,0.96384968,-0.93413369,-0.3569233,0,0)" height="1.6076" width="1.5264" y="-279.3" x="360.21"/>
<rect id="rect6091" transform="matrix(-0.30908608,0.95103407,-0.95103407,-0.30908608,0,0)" height="2.606" width="2.1717" y="-254.84" x="433.65"/>
<rect id="rect6095" transform="matrix(-0.30908608,0.95103407,-0.95103407,-0.30908608,0,0)" height="2.8539" width="2.3783" y="-405.34" x="350.06"/>
<rect id="rect6097" transform="matrix(-0.22772272,0.97372602,-0.91135964,-0.41161098,0,0)" height="2.4607" width="2.6671" y="-336.28" x="376.87"/>
<rect id="rect6099" transform="matrix(-0.30908608,0.95103407,-0.95103407,-0.30908608,0,0)" height="3.3498" width="2.7915" y="-476.12" x="352.42"/>
<rect id="rect6112" transform="matrix(-0.30908608,0.95103407,-0.95103407,-0.30908608,0,0)" height="3.1019" width="2.5849" y="-532.03" x="330.35"/>
<rect id="rect6114" transform="matrix(-0.30908608,0.95103407,-0.95103407,-0.30908608,0,0)" height="2.606" width="2.1717" y="-601.06" x="300.63"/>
<rect id="rect6116" transform="matrix(-0.30908608,0.95103407,-0.95103407,-0.30908608,0,0)" height="3.5014" width="2.9178" y="-678.56" x="257.91"/>
<rect id="rect6118" transform="matrix(-0.30908608,0.95103407,-0.95103407,-0.30908608,0,0)" height="3.3498" width="2.7915" y="-737.95" x="270.64"/>
<rect id="rect6120" transform="matrix(-0.30908608,0.95103407,-0.95103407,-0.30908608,0,0)" height="2.606" width="2.1717" y="-806.05" x="222.42"/>
<rect id="rect6122" transform="matrix(-0.30908608,0.95103407,-0.95103407,-0.30908608,0,0)" height="2.6372" width="2.1977" y="-811.52" x="298.19"/>
<rect id="rect6124" transform="matrix(-0.30908608,0.95103407,-0.95103407,-0.30908608,0,0)" height="2.4556" width="2.0463" y="-357.99" x="378.69"/>
<rect id="rect6126" transform="matrix(-0.30908608,0.95103407,-0.95103407,-0.30908608,0,0)" height="2.8539" width="2.3783" y="-760.91" x="221.13"/>
<rect id="rect6128" transform="matrix(-0.30908608,0.95103407,-0.95103407,-0.30908608,0,0)" height="2.8539" width="2.3783" y="-559.57" x="298.15"/>
<rect id="rect6130" transform="matrix(-0.30908608,0.95103407,-0.95103407,-0.30908608,0,0)" height="2.6372" width="2.1977" y="-206.05" x="404.06"/>
<rect id="rect6132" transform="matrix(-0.30908608,0.95103407,-0.95103407,-0.30908608,0,0)" height="2.6372" width="2.1977" y="-240.49" x="493.58"/>
<rect id="rect6134" transform="matrix(-0.32674014,0.94511422,-0.9563594,-0.29219291,0,0)" height="3.2115" width="2.5458" y="-487.36" x="396.08"/>
</g>
</svg>
